<?xml version="1.0" encoding="utf-8"?>
<!-- Generator: Adobe Illustrator 22.1.0, SVG Export Plug-In . SVG Version: 6.00 Build 0)  -->
<svg version="1.1" id="Layer_1" xmlns="http://www.w3.org/2000/svg" xmlns:xlink="http://www.w3.org/1999/xlink" x="0px" y="0px"
	 viewBox="0 0 841.9 317.3" style="enable-background:new 0 0 841.9 317.3;" xml:space="preserve">
<style type="text/css">
	.st0{fill:#FFFFFF;}
	.st1{fill:#65B32C;}
</style>
<g>
	<path class="st0" d="M101.8,157.2L84.7,98.5c-0.6,0-7.9,34.3-15.8,58.8L101.8,157.2z M165.6,227.6h-46.5l-11.5-38.4l-43.7,0.4
		l-10.1,38.1h-45L56,64.6h61.2L165.6,227.6z"/>
	<path class="st0" d="M224.2,97.5l0.3,37.7h14.6c13.7,0,24.7-6.1,24.7-21.2c0-13.1-8.7-16.5-24.4-16.5H224.2z M315.5,227.7H266
		l-7.9-38.1c-5.2-25.3-17.9-23.5-34-22.6v60.7h-43.2V65.4h60.6c17.8,0,34.8,2.3,46.1,9.5c27.7,17.7,28.5,59-7.5,76.6
		C302.5,161.7,305,204.7,315.5,227.7z"/>
	<rect x="335.1" y="64.8" class="st0" width="43.3" height="162.3"/>
	<path class="st0" d="M403.9,184.5c18.2,5.4,46.8,13.5,64.3,6.7c8.3-3.2,9.2-9.5,7.4-13.8c-3.3-7.6-13.7-12-23.6-15.2
		c-10.1-3.3-20.9-7.5-29.8-13.5c-12.5-8.4-21.4-20.3-19.8-38.6c3-33.8,34.6-46.4,65-46.4c8.7,0,16.4,0.5,23.1,1.5s8.9,1.2,14.6,3.3
		v37.3c-21.8-9.2-46.3-9.9-55-2.9c-6.1,4.9-5.7,12.6,6.6,18.2c13.9,6.4,27.7,10.3,39.3,17.3c5.1,3.1,9.6,6.8,13.8,11.6
		c27.8,32.2-1.1,70.7-33.9,77.6c-21.9,4.5-51.8,4.5-72-4.8L403.9,184.5L403.9,184.5z"/>
	<polygon class="st0" points="657.9,101.9 614.5,101.9 614.5,227.2 570.9,227.2 570.9,101.9 527.8,101.9 527.8,65 657.9,65 	"/>
	<path class="st0" d="M742.1,97.6c-11,0-19.8,4.5-26.3,13.4c-6.5,9-9.7,20.8-9.7,35.6c0,15,3.2,26.8,9.7,35.6
		c6.5,8.7,15,13.1,25.5,13.1c10.9,0,19.4-4.2,25.8-12.7c6.4-8.5,9.5-20.2,9.5-35.3c0-15.7-3.1-27.9-9.2-36.6
		C761.3,102,752.8,97.6,742.1,97.6 M741.8,230.1c-23.5,0-42.7-7.6-57.5-22.6c-14.8-15.1-22.2-34.8-22.2-59
		c0-25.6,7.5-46.3,22.5-62.1s34.9-23.7,59.8-23.7c23.4,0,42.4,7.6,56.9,22.7c14.5,15.2,21.7,35.1,21.7,59.9c0,25.4-7.5,46-22.5,61.6
		C785.5,222.3,765.9,230.1,741.8,230.1z"/>
	<polygon class="st1" points="335.7,45.3 379,45.3 400.6,2.8 357.4,2.8 	"/>
	<path class="st0" d="M3,286.7l5.8-0.5c0.3,2.4,0.9,4.3,1.9,5.8s2.6,2.7,4.7,3.7c2.1,0.9,4.5,1.4,7.2,1.4c2.4,0,4.4-0.3,6.2-1.1
		c1.8-0.7,3.1-1.7,4-2.9c0.9-1.2,1.3-2.6,1.3-4c0-1.5-0.4-2.7-1.3-3.8c-0.8-1.1-2.3-2-4.2-2.8c-1.3-0.5-4-1.2-8.3-2.3
		c-4.3-1-7.3-2-9-2.9c-2.2-1.2-3.9-2.6-5-4.4c-1.1-1.7-1.6-3.7-1.6-5.8c0-2.4,0.7-4.6,2-6.6c1.3-2.1,3.3-3.6,5.9-4.7
		c2.6-1.1,5.4-1.6,8.6-1.6c3.5,0,6.5,0.6,9.2,1.7c2.6,1.1,4.7,2.8,6.1,4.9c1.4,2.2,2.2,4.6,2.3,7.4l-5.9,0.5
		c-0.3-2.9-1.4-5.2-3.2-6.7c-1.8-1.5-4.6-2.3-8.2-2.3c-3.7,0-6.5,0.7-8.2,2.1s-2.6,3-2.6,5c0,1.7,0.6,3.1,1.8,4.1
		c1.2,1.1,4.3,2.2,9.3,3.3c5,1.1,8.5,2.1,10.3,3c2.7,1.3,4.7,2.8,6,4.8c1.3,1.9,1.9,4.1,1.9,6.6s-0.7,4.8-2.1,7
		c-1.4,2.2-3.5,3.9-6.1,5.1c-2.7,1.2-5.7,1.8-9,1.8c-4.2,0-7.8-0.6-10.6-1.9c-2.9-1.2-5.1-3.1-6.7-5.6C3.9,292.6,3,289.8,3,286.7"/>
	<rect x="47.7" y="254.9" class="st0" width="5.7" height="46.7"/>
	<path class="st0" d="M62.3,301.7v-33.9H68v33.9H62.3z M62.3,261.5V255H68v6.5H62.3z"/>
	<path class="st0" d="M80.5,284.8c0,4.3,0.9,7.6,2.8,9.7c1.8,2.1,4,3.2,6.5,3.2s4.6-1,6.4-3.1c1.8-2,2.6-5.2,2.6-9.4
		c0-4.6-0.9-8-2.7-10.2c-1.8-2.2-4-3.2-6.6-3.2s-4.7,1-6.4,3.1C81.4,277.1,80.5,280.3,80.5,284.8 M98.7,301.7v-4.3
		c-2.1,3.3-5.3,5-9.5,5c-2.7,0-5.2-0.7-7.4-2.2c-2.3-1.5-4-3.6-5.3-6.2c-1.2-2.7-1.9-5.7-1.9-9.2c0-3.4,0.6-6.4,1.7-9.2
		c1.1-2.7,2.8-4.9,5.1-6.3c2.2-1.5,4.8-2.2,7.5-2.2c2,0,3.9,0.4,5.5,1.3s2.9,2,3.9,3.4V255h5.7v46.7L98.7,301.7L98.7,301.7z"/>
	<path class="st0" d="M113.1,301.7v-33.9h5.7v33.9H113.1z M113.1,261.5V255h5.7v6.5H113.1z"/>
	<path class="st0" d="M127.6,301.7v-33.9h5.2v4.8c2.5-3.7,6.1-5.5,10.8-5.5c2,0,3.9,0.4,5.6,1.1c1.7,0.7,3,1.7,3.8,2.9
		c0.9,1.2,1.4,2.6,1.8,4.2c0.2,1.1,0.3,2.9,0.3,5.6v20.8h-5.7v-20.6c0-2.3-0.2-4.1-0.7-5.2c-0.4-1.2-1.2-2.1-2.4-2.8
		c-1.1-0.7-2.5-1-4-1c-2.4,0-4.5,0.8-6.3,2.3s-2.7,4.5-2.7,8.8v18.5L127.6,301.7L127.6,301.7z"/>
	<path class="st0" d="M167.6,284.2c0,4.4,0.9,7.7,2.6,9.7c1.8,2,4,3.1,6.6,3.1s4.9-1,6.6-3c1.8-2,2.7-5.2,2.7-9.5
		c0-4.1-0.9-7.3-2.8-9.4c-1.8-2.1-4.1-3.1-6.6-3.1c-2.6,0-4.7,1-6.5,3.1C168.5,277,167.6,280.1,167.6,284.2 M162.9,304.5l5.6,0.8
		c0.2,1.7,0.9,3,1.9,3.8c1.4,1.1,3.4,1.6,5.8,1.6c2.7,0,4.7-0.5,6.2-1.6c1.4-1.1,2.4-2.5,2.9-4.4c0.3-1.2,0.4-3.6,0.4-7.3
		c-2.5,3-5.6,4.4-9.4,4.4c-4.7,0-8.3-1.7-10.8-5c-2.6-3.4-3.8-7.4-3.8-12.1c0-3.2,0.6-6.2,1.8-8.9c1.2-2.7,2.9-4.8,5.1-6.3
		c2.2-1.5,4.8-2.2,7.8-2.2c4,0,7.3,1.6,9.9,4.9V268h5.3v29.3c0,5.3-0.5,9-1.6,11.2s-2.8,3.9-5.1,5.2c-2.3,1.3-5.2,1.9-8.6,1.9
		c-4,0-7.3-0.9-9.8-2.7C164,310.9,162.8,308.1,162.9,304.5z"/>
	<path class="st0" d="M227.2,301.7L214.9,255h6.4l7,30.7c0.8,3.2,1.4,6.4,2,9.6c1.2-5,1.9-7.9,2.2-8.6l8.8-31.6h7.5l6.7,23.7
		c1.6,5.9,2.9,11.4,3.6,16.5c0.6-2.9,1.4-6.3,2.4-10.2l7.3-30.1h6.2l-12.8,46.7h-6l-9.8-35.6c-0.8-3-1.3-4.8-1.5-5.5
		c-0.5,2.1-1,4-1.4,5.5l-9.8,35.6H227.2z"/>
	<path class="st0" d="M299.3,284.7c-2.1,0.8-5.2,1.6-9.4,2.2c-2.4,0.3-4,0.7-5,1.1s-1.7,1-2.3,1.9c-0.5,0.8-0.8,1.7-0.8,2.7
		c0,1.5,0.6,2.8,1.7,3.8c1.2,1,2.9,1.5,5.1,1.5s4.2-0.5,5.9-1.4c1.7-1,3-2.3,3.8-3.9c0.6-1.3,0.9-3.2,0.9-5.7L299.3,284.7z
		 M299.7,297.5c-2.1,1.8-4.2,3.1-6.2,3.8c-2,0.8-4.1,1.1-6.3,1.1c-3.7,0-6.6-0.9-8.6-2.7c-2-1.8-3-4.1-3-6.9c0-1.7,0.4-3.2,1.1-4.5
		c0.8-1.4,1.8-2.5,3-3.3s2.6-1.5,4.1-1.9c1.1-0.3,2.8-0.6,5.1-0.9c4.6-0.5,8.1-1.2,10.3-2c0-0.8,0-1.3,0-1.5c0-2.3-0.5-4-1.6-4.9
		c-1.5-1.3-3.7-1.9-6.6-1.9c-2.7,0-4.7,0.5-6,1.4s-2.2,2.6-2.9,5l-5.6-0.8c0.5-2.4,1.3-4.4,2.5-5.8c1.2-1.5,2.9-2.6,5.1-3.4
		s4.8-1.2,7.7-1.2c2.9,0,5.3,0.3,7.1,1c1.8,0.7,3.1,1.5,4,2.6c0.8,1,1.4,2.3,1.8,3.9c0.2,1,0.3,2.7,0.3,5.3v7.6
		c0,5.3,0.1,8.7,0.4,10.1c0.2,1.4,0.7,2.8,1.4,4.1h-6C300.3,300.5,299.9,299.1,299.7,297.5z"/>
	<path class="st0" d="M313.8,301.7v-33.9h5.2v5.2c1.3-2.4,2.5-4,3.7-4.8c1.1-0.8,2.4-1.2,3.7-1.2c1.9,0,3.9,0.6,5.9,1.8l-2,5.3
		c-1.4-0.8-2.8-1.2-4.2-1.2c-1.3,0-2.4,0.4-3.4,1.1c-1,0.8-1.7,1.8-2.1,3.1c-0.6,2-1,4.3-1,6.7v17.7h-5.8V301.7z"/>
	<path class="st0" d="M339.4,284.8c0,4.3,0.9,7.6,2.8,9.7c1.8,2.1,4,3.2,6.5,3.2s4.6-1,6.4-3.1c1.8-2,2.6-5.2,2.6-9.4
		c0-4.6-0.9-8-2.7-10.2c-1.8-2.2-4-3.2-6.6-3.2s-4.7,1-6.4,3.1C340.2,277.1,339.4,280.3,339.4,284.8 M357.5,301.7v-4.3
		c-2.1,3.3-5.3,5-9.5,5c-2.7,0-5.2-0.7-7.4-2.2c-2.3-1.5-4-3.6-5.3-6.2c-1.2-2.7-1.9-5.7-1.9-9.2c0-3.4,0.6-6.4,1.7-9.2
		c1.1-2.7,2.8-4.9,5.1-6.3c2.2-1.5,4.8-2.2,7.5-2.2c2,0,3.9,0.4,5.5,1.3s2.9,2,3.9,3.4V255h5.7v46.7L357.5,301.7L357.5,301.7z"/>
	<path class="st0" d="M371.9,301.7v-33.9h5.2v5.2c1.3-2.4,2.5-4,3.7-4.8c1.1-0.8,2.4-1.2,3.7-1.2c1.9,0,3.9,0.6,5.9,1.8l-2,5.3
		c-1.4-0.8-2.8-1.2-4.2-1.2c-1.3,0-2.4,0.4-3.4,1.1c-1,0.8-1.7,1.8-2.1,3.1c-0.6,2-1,4.3-1,6.7v17.7h-5.8V301.7z"/>
	<path class="st0" d="M397.4,284.8c0,4.3,0.9,7.6,2.8,9.7c1.9,2.2,4.3,3.2,7.2,3.2c2.9,0,5.2-1.1,7.1-3.2c1.9-2.2,2.8-5.5,2.8-9.9
		c0-4.2-1-7.3-2.9-9.5s-4.3-3.2-7.1-3.2c-2.9,0-5.3,1.1-7.2,3.2C398.4,277.2,397.4,280.4,397.4,284.8 M391.5,284.8
		c0-6.3,1.7-10.9,5.2-13.9c2.9-2.5,6.5-3.8,10.7-3.8c4.6,0,8.5,1.5,11.4,4.6c2.9,3,4.4,7.2,4.4,12.6c0,4.4-0.7,7.8-2,10.3
		s-3.2,4.4-5.7,5.8s-5.2,2.1-8.2,2.1c-4.7,0-8.6-1.5-11.5-4.5C393,294.8,391.5,290.5,391.5,284.8z"/>
	<path class="st0" d="M435.2,284.5c0,4,0.6,7,1.7,8.8c1.8,2.9,4.2,4.4,7.3,4.4c2.5,0,4.7-1.1,6.5-3.3c1.8-2.2,2.7-5.4,2.7-9.7
		c0-4.4-0.9-7.7-2.6-9.8c-1.8-2.1-3.9-3.2-6.4-3.2s-4.7,1.1-6.5,3.3C436.1,277.2,435.2,280.4,435.2,284.5 M435.3,301.7h-5.4V255h5.7
		v16.7c2.4-3,5.5-4.5,9.3-4.5c2.1,0,4.1,0.4,5.9,1.3c1.9,0.8,3.4,2,4.6,3.5s2.1,3.3,2.8,5.5c0.7,2.1,1,4.4,1,6.9
		c0,5.8-1.4,10.3-4.3,13.4c-2.9,3.2-6.3,4.7-10.3,4.7s-7.1-1.7-9.4-5L435.3,301.7L435.3,301.7z"/>
	<path class="st0" d="M470.6,281.5h18.9c-0.2-2.9-1-5-2.2-6.4c-1.8-2.2-4.2-3.3-7.1-3.3c-2.6,0-4.8,0.9-6.6,2.6
		C471.8,276.2,470.8,278.6,470.6,281.5 M489.4,290.7l5.9,0.8c-0.9,3.4-2.7,6.1-5.2,8s-5.7,2.9-9.7,2.9c-4.9,0-8.9-1.5-11.8-4.6
		c-2.9-3-4.3-7.3-4.3-12.8c0-5.7,1.5-10.1,4.4-13.2s6.7-4.7,11.4-4.7c4.5,0,8.2,1.5,11.1,4.6s4.3,7.4,4.3,13c0,0.3,0,0.8,0,1.5
		h-25.2c0.2,3.7,1.3,6.6,3.2,8.5c1.9,2,4.2,3,7.1,3c2.1,0,3.9-0.6,5.4-1.7C487.4,294.9,488.6,293.2,489.4,290.7z"/>
	<path class="st0" d="M526.2,282.5h15.9l-4.9-13c-1.5-3.9-2.6-7.2-3.4-9.8c-0.6,3-1.5,6-2.6,9L526.2,282.5z M512.8,301.7l17.9-46.7
		h6.8l19,46.7h-7l-5.4-14.2h-19.7l-5.1,14.2H512.8z"/>
	<path class="st0" d="M564.4,284.8c0,4.3,0.9,7.6,2.8,9.7c1.8,2.1,4,3.2,6.5,3.2s4.6-1,6.4-3.1c1.8-2,2.6-5.2,2.6-9.4
		c0-4.6-0.9-8-2.7-10.2s-4-3.2-6.6-3.2s-4.7,1-6.4,3.1C565.3,277.1,564.4,280.3,564.4,284.8 M582.6,301.7v-4.3c-2.1,3.3-5.3,5-9.5,5
		c-2.7,0-5.2-0.7-7.4-2.2c-2.3-1.5-4-3.6-5.3-6.2c-1.2-2.7-1.9-5.7-1.9-9.2c0-3.4,0.6-6.4,1.7-9.2c1.1-2.7,2.8-4.9,5.1-6.3
		c2.2-1.5,4.8-2.2,7.5-2.2c2,0,3.9,0.4,5.5,1.3s2.9,2,3.9,3.4V255h5.7v46.7L582.6,301.7L582.6,301.7z"/>
	<path class="st0" d="M606.3,301.7l-12.8-33.9h6.2l7.2,20.3c0.8,2.2,1.5,4.5,2.2,6.8c0.5-1.8,1.2-3.9,2.1-6.4l7.5-20.7h5.9
		l-12.8,33.9L606.3,301.7L606.3,301.7z"/>
	<path class="st0" d="M651.3,284.7c-2.1,0.8-5.2,1.6-9.4,2.2c-2.4,0.3-4,0.7-5,1.1s-1.7,1-2.3,1.9c-0.5,0.8-0.8,1.7-0.8,2.7
		c0,1.5,0.6,2.8,1.7,3.8c1.2,1,2.9,1.5,5.1,1.5c2.2,0,4.2-0.5,5.9-1.4c1.7-1,3-2.3,3.8-3.9c0.6-1.3,0.9-3.2,0.9-5.7L651.3,284.7z
		 M651.8,297.5c-2.1,1.8-4.2,3.1-6.2,3.8c-2,0.8-4.1,1.1-6.3,1.1c-3.7,0-6.6-0.9-8.6-2.7c-2-1.8-3-4.1-3-6.9c0-1.7,0.4-3.2,1.1-4.5
		c0.8-1.4,1.8-2.5,3-3.3s2.6-1.5,4.1-1.9c1.1-0.3,2.8-0.6,5.1-0.9c4.6-0.5,8.1-1.2,10.3-2c0-0.8,0-1.3,0-1.5c0-2.3-0.5-4-1.6-4.9
		c-1.5-1.3-3.7-1.9-6.6-1.9c-2.7,0-4.7,0.5-6,1.4s-2.2,2.6-2.9,5l-5.6-0.8c0.5-2.4,1.3-4.4,2.5-5.8c1.2-1.5,2.9-2.6,5.1-3.4
		c2.2-0.8,4.8-1.2,7.7-1.2s5.3,0.3,7.1,1s3.1,1.5,4,2.6c0.9,1,1.4,2.3,1.8,3.9c0.2,1,0.3,2.7,0.3,5.3v7.6c0,5.3,0.1,8.7,0.4,10.1
		c0.2,1.4,0.7,2.8,1.4,4.1h-6C652.3,300.5,652,299.1,651.8,297.5z"/>
	<path class="st0" d="M666,301.7v-33.9h5.2v4.8c2.5-3.7,6.1-5.5,10.8-5.5c2,0,3.9,0.4,5.6,1.1c1.7,0.7,3,1.7,3.8,2.9
		c0.8,1.2,1.4,2.6,1.8,4.2c0.2,1.1,0.3,2.9,0.3,5.6v20.8h-5.7v-20.6c0-2.3-0.2-4.1-0.7-5.2c-0.4-1.2-1.2-2.1-2.4-2.8
		c-1.1-0.7-2.5-1-4-1c-2.4,0-4.5,0.8-6.3,2.3s-2.7,4.5-2.7,8.8v18.5L666,301.7L666,301.7z"/>
	<path class="st0" d="M714.8,296.6l0.8,5.1c-1.6,0.3-3.1,0.5-4.3,0.5c-2.1,0-3.7-0.3-4.8-1s-1.9-1.5-2.4-2.6s-0.7-3.3-0.7-6.8v-19.5
		H699v-4.4h4.2v-8.4l5.7-3.4v11.8h5.7v4.4H709v19.8c0,1.6,0.1,2.7,0.3,3.2s0.5,0.8,1,1.1c0.5,0.3,1.1,0.4,2,0.4
		C712.9,296.8,713.7,296.7,714.8,296.6"/>
	<path class="st0" d="M742.1,284.7c-2.1,0.8-5.2,1.6-9.4,2.2c-2.4,0.3-4,0.7-5,1.1s-1.7,1-2.3,1.9c-0.5,0.8-0.8,1.7-0.8,2.7
		c0,1.5,0.6,2.8,1.7,3.8c1.2,1,2.9,1.5,5.1,1.5c2.2,0,4.2-0.5,5.9-1.4c1.7-1,3-2.3,3.8-3.9c0.6-1.3,0.9-3.2,0.9-5.7L742.1,284.7z
		 M742.6,297.5c-2.1,1.8-4.2,3.1-6.2,3.8c-2,0.8-4.1,1.1-6.3,1.1c-3.7,0-6.6-0.9-8.6-2.7c-2-1.8-3-4.1-3-6.9c0-1.7,0.4-3.2,1.1-4.5
		c0.8-1.4,1.8-2.5,3-3.3s2.6-1.5,4.1-1.9c1.1-0.3,2.8-0.6,5.1-0.9c4.6-0.5,8.1-1.2,10.3-2c0-0.8,0-1.3,0-1.5c0-2.3-0.5-4-1.6-4.9
		c-1.5-1.3-3.7-1.9-6.6-1.9c-2.7,0-4.7,0.5-6,1.4s-2.2,2.6-2.9,5l-5.6-0.8c0.5-2.4,1.3-4.4,2.5-5.8c1.2-1.5,2.9-2.6,5.1-3.4
		c2.2-0.8,4.8-1.2,7.7-1.2s5.3,0.3,7.1,1s3.1,1.5,4,2.6c0.9,1,1.4,2.3,1.8,3.9c0.2,1,0.3,2.7,0.3,5.3v7.6c0,5.3,0.1,8.7,0.4,10.1
		c0.2,1.4,0.7,2.8,1.4,4.1h-6C743.1,300.5,742.7,299.1,742.6,297.5z"/>
	<path class="st0" d="M760.4,284.2c0,4.4,0.9,7.7,2.6,9.7c1.8,2,4,3.1,6.6,3.1s4.9-1,6.6-3c1.8-2,2.7-5.2,2.7-9.5
		c0-4.1-0.9-7.3-2.8-9.4c-1.8-2.1-4.1-3.1-6.6-3.1c-2.6,0-4.7,1-6.5,3.1C761.3,277,760.4,280.1,760.4,284.2 M755.7,304.5l5.6,0.8
		c0.2,1.7,0.9,3,1.9,3.8c1.4,1.1,3.4,1.6,5.8,1.6c2.7,0,4.7-0.5,6.2-1.6c1.4-1.1,2.4-2.5,2.9-4.4c0.3-1.2,0.4-3.6,0.4-7.3
		c-2.5,3-5.6,4.4-9.4,4.4c-4.7,0-8.3-1.7-10.8-5c-2.6-3.4-3.8-7.4-3.8-12.1c0-3.2,0.6-6.2,1.8-8.9c1.2-2.7,2.9-4.8,5.1-6.3
		c2.2-1.5,4.8-2.2,7.8-2.2c4,0,7.3,1.6,9.9,4.9V268h5.3v29.3c0,5.3-0.5,9-1.6,11.2s-2.8,3.9-5.1,5.2c-2.3,1.3-5.2,1.9-8.6,1.9
		c-4,0-7.3-0.9-9.8-2.7C756.8,310.9,755.6,308.1,755.7,304.5z"/>
	<path class="st0" d="M797.4,281.5h18.9c-0.3-2.9-1-5-2.2-6.4c-1.8-2.2-4.2-3.3-7.1-3.3c-2.6,0-4.8,0.9-6.6,2.6
		C798.5,276.2,797.5,278.6,797.4,281.5 M816.2,290.7l5.9,0.8c-0.9,3.4-2.7,6.1-5.2,8s-5.7,2.9-9.7,2.9c-4.9,0-8.9-1.5-11.8-4.6
		c-2.9-3-4.3-7.3-4.3-12.8c0-5.7,1.5-10.1,4.4-13.2s6.7-4.7,11.4-4.7c4.5,0,8.2,1.5,11.1,4.6c2.9,3.1,4.3,7.4,4.3,13
		c0,0.3,0,0.8,0,1.5H797c0.2,3.7,1.3,6.6,3.2,8.5c1.9,2,4.2,3,7.1,3c2.1,0,3.9-0.6,5.4-1.7C814.1,294.9,815.3,293.2,816.2,290.7z"/>
</g>
</svg>
